<svg width="22" height="22" viewBox="0 0 22 22" fill="none" xmlns="http://www.w3.org/2000/svg">
<path id="Shape" fill-rule="evenodd" clip-rule="evenodd" d="M14.6398 19.5933C16.5047 19.703 18.0101 18.8419 19.3098 17.5422C19.7003 17.1516 19.7003 16.5185 19.3098 16.1279L16.9897 13.8078C16.5137 13.3318 15.742 13.3318 15.266 13.8078C14.2742 14.7996 12.649 15.3932 11.1657 14.5565C10.5265 14.196 9.78984 13.679 9.05677 12.946C8.32369 12.2129 7.80674 11.4762 7.4462 10.8371C6.6095 9.35376 7.20317 7.72849 8.19495 6.73672C8.67092 6.26075 8.67092 5.48905 8.19495 5.01308L5.87479 2.69292C5.48426 2.30239 4.8511 2.30239 4.46057 2.69292C3.16081 3.99268 2.29975 5.49803 2.40945 7.36297C2.52142 9.26648 3.6563 11.7881 6.93545 15.0673C10.2146 18.3464 12.7363 19.4813 14.6398 19.5933ZM14.5223 21.5898C11.918 21.4366 8.9596 19.9199 5.52123 16.4815C2.08287 13.0431 0.566096 10.0847 0.412903 7.48042C0.25744 4.83756 1.5177 2.80737 3.04636 1.2787C4.21793 0.107131 6.11743 0.107131 7.289 1.2787L9.60916 3.59886C10.8662 4.85588 10.8662 6.89391 9.60916 8.15093C9.0272 8.73289 8.93142 9.39928 9.18817 9.85444C9.46972 10.3536 9.8801 10.9409 10.471 11.5318C11.0619 12.1226 11.6492 12.533 12.1483 12.8146C12.6035 13.0713 13.2698 12.9755 13.8518 12.3936C15.1088 11.1366 17.1469 11.1366 18.4039 12.3936L20.724 14.7137C21.8956 15.8853 21.8956 17.7848 20.724 18.9564C19.1954 20.485 17.1652 21.7453 14.5223 21.5898Z" fill="#71747A"/>
</svg>
