<svg width="22" height="22" viewBox="0 0 22 22" fill="none" xmlns="http://www.w3.org/2000/svg">
<path id="Shape" fill-rule="evenodd" clip-rule="evenodd" d="M11 0.5C8.37665 0.5 6.25 2.62665 6.25 5.25C6.25 7.87335 8.37665 10 11 10C13.6234 10 15.75 7.87335 15.75 5.25C15.75 2.62665 13.6234 0.5 11 0.5ZM11 12C3.70531 12 0.5 15.9713 0.5 18.5C0.5 19.4906 0.708473 20.4352 1.38664 21.1134C2.06481 21.7915 3.00945 22 4 22H18C19.2934 22 20.4719 21.6319 21.0876 20.4674C21.3938 19.8884 21.5 19.211 21.5 18.5C21.5 15.9713 18.2947 12 11 12Z" fill="#248BF2"/>
</svg>
