<svg width="22" height="22" viewBox="0 0 22 22" fill="none" xmlns="http://www.w3.org/2000/svg">
<path id="Shape" fill-rule="evenodd" clip-rule="evenodd" d="M15.4725 4H21C21.5523 4 22 4.44772 22 5C22 5.55228 21.5523 6 21 6H19.9079L18.9114 16.2975C18.8404 17.0305 18.7817 17.6378 18.6945 18.1319C18.6037 18.6469 18.4703 19.1163 18.2097 19.5523C17.8033 20.2322 17.2042 20.7761 16.4884 21.1151C16.0293 21.3325 15.5492 21.4201 15.0279 21.4609C14.5276 21.5 13.9176 21.5 13.1812 21.5H8.81892C8.08255 21.5 7.47235 21.5 6.97215 21.4609C6.4508 21.4201 5.97072 21.3325 5.51163 21.1151C4.79579 20.7761 4.19672 20.2322 3.79033 19.5523C3.5297 19.1163 3.39632 18.6469 3.30548 18.1319C3.21832 17.6378 3.15956 17.0305 3.08863 16.2975L2.0921 6H1C0.447715 6 0 5.55228 0 5C0 4.44772 0.447715 4 1 4H6.52747C6.77622 1.75005 8.68374 6.10352e-05 11 6.10352e-05C13.3163 6.10352e-05 15.2238 1.75005 15.4725 4ZM7.48884 6H4.10145L5.07558 16.066C5.15121 16.8476 5.20312 17.3766 5.27507 17.7845C5.34487 18.1802 5.42158 18.3832 5.50701 18.5262C5.71021 18.8661 6.00974 19.138 6.36766 19.3075C6.51814 19.3788 6.72763 19.4356 7.12823 19.467C7.54116 19.4993 8.07268 19.5 8.85791 19.5H13.1421C13.9273 19.5 14.4588 19.4993 14.8718 19.467C15.2724 19.4356 15.4819 19.3788 15.6323 19.3075C15.9903 19.138 16.2898 18.8661 16.493 18.5262C16.5784 18.3832 16.6551 18.1802 16.7249 17.7845C16.7969 17.3766 16.8488 16.8476 16.9244 16.066L17.8986 6H14.5112C14.5074 6.00004 14.5037 6.00006 14.5 6.00006H7.5C7.49627 6.00006 7.49255 6.00004 7.48884 6ZM13.45 4C13.2183 2.85891 12.2095 2.00006 11 2.00006C9.79054 2.00006 8.78168 2.85891 8.55002 4H13.45Z" fill="#71747A"/>
</svg>
