<svg width="22" height="24" viewBox="0 0 22 24" fill="none" xmlns="http://www.w3.org/2000/svg">
<path id="Shape" fill-rule="evenodd" clip-rule="evenodd" d="M11.783 23.5C12.8174 23.5 13.745 22.8629 14.1163 21.8975C14.7221 20.3223 16.3462 19.3847 18.0132 19.6476C19.035 19.8087 20.0505 19.3239 20.5677 18.4281L21.3507 17.0719C21.868 16.1761 21.78 15.0542 21.1296 14.2499C20.0684 12.9377 20.0684 11.0623 21.1296 9.75013C21.78 8.9458 21.868 7.82394 21.3507 6.9281L20.5677 5.5719C20.0505 4.67606 19.035 4.19127 18.0132 4.35242C16.3462 4.61533 14.7221 3.67768 14.1163 2.10255C13.745 1.13707 12.8174 0.5 11.783 0.5H10.2169C9.18252 0.5 8.25492 1.13707 7.88358 2.10256C7.27777 3.67768 5.6537 4.61534 3.98669 4.35243C2.9649 4.19128 1.94938 4.67606 1.43216 5.57191L0.649161 6.9281C0.131945 7.82395 0.21987 8.94581 0.870332 9.75013C1.93152 11.0623 1.93152 12.9377 0.870332 14.2499C0.219871 15.0542 0.131948 16.1761 0.649164 17.0719L1.43216 18.4281C1.94938 19.3239 2.9649 19.8087 3.9867 19.6476C5.65371 19.3847 7.27777 20.3223 7.88359 21.8974C8.25493 22.8629 9.18252 23.5 10.217 23.5L11.783 23.5ZM7.49995 12C7.49995 10.067 9.06696 8.5 11 8.5C12.9329 8.5 14.5 10.067 14.5 12C14.5 13.933 12.933 15.5 11 15.5C9.06696 15.5 7.49995 13.933 7.49995 12Z" fill="#248BF2"/>
</svg>
