<svg width="24" height="24" viewBox="0 0 24 24" fill="none" xmlns="http://www.w3.org/2000/svg">
<path fill-rule="evenodd" clip-rule="evenodd" d="M12.0002 0.5C12.3808 0.5 12.7285 0.716099 12.8969 1.05743L15.9706 7.28527L22.8434 8.28395C23.2201 8.33869 23.533 8.60253 23.6506 8.96454C23.7683 9.32655 23.6702 9.72395 23.3976 9.98965L18.4244 14.8373L19.5984 21.6824C19.6627 22.0576 19.5085 22.4367 19.2006 22.6605C18.8926 22.8842 18.4844 22.9137 18.1474 22.7366L12.0002 19.5048L5.85295 22.7366C5.51603 22.9137 5.10777 22.8842 4.79983 22.6605C4.49188 22.4367 4.33766 22.0576 4.402 21.6824L5.57602 14.8373L0.602799 9.98965C0.330226 9.72395 0.232129 9.32655 0.349754 8.96454C0.467379 8.60253 0.780326 8.33869 1.15701 8.28395L8.02984 7.28527L11.1035 1.05743C11.2719 0.716099 11.6196 0.5 12.0002 0.5ZM12.0002 3.75955L9.59064 8.64185C9.44498 8.93699 9.16341 9.14156 8.8377 9.18889L3.44977 9.9718L7.34852 13.7721C7.5842 14.0019 7.69175 14.3329 7.63611 14.6573L6.71574 20.0234L11.5349 17.4899C11.8262 17.3367 12.1742 17.3367 12.4655 17.4899L17.2846 20.0234L16.3643 14.6573C16.3086 14.3329 16.4162 14.0019 16.6519 13.7721L20.5506 9.9718L15.1627 9.18889C14.837 9.14156 14.5554 8.93699 14.4098 8.64184L12.0002 3.75955Z" fill="#71747A"/>
</svg>
